<?xml version="1.0" encoding="UTF-8"?>
<!DOCTYPE svg PUBLIC "-//W3C//DTD SVG 1.1//EN" "http://www.w3.org/Graphics/SVG/1.1/DTD/svg11.dtd">
<!-- Creator: CorelDRAW 2020 (64 Bit) -->
<svg xmlns="http://www.w3.org/2000/svg" xml:space="preserve" width="91.44mm" height="162.56mm" version="1.1" style="shape-rendering:geometricPrecision; text-rendering:geometricPrecision; image-rendering:optimizeQuality; fill-rule:evenodd; clip-rule:evenodd"
viewBox="0 0 9144 16256"
 xmlns:xlink="http://www.w3.org/1999/xlink"
 xmlns:xodm="http://www.corel.com/coreldraw/odm/2003">
 <defs>
  <style type="text/css">
   <![CDATA[
    .fil0 {fill:#004BAF}
    .fil2 {fill:#00AFF5}
    .fil1 {fill:#1677C8}
   ]]>
  </style>
 </defs>
 <g id="Camada_x0020_1">
  <metadata id="CorelCorpID_0Corel-Layer"/>
  <g id="Logo">
   <path class="fil0" d="M6753.48 7165.83l0 660.4 -3271.09 0c-765.53,-28.17 -1075.98,523.47 -1075.98,523.47l0 -1133.07c0,0 2006.59,-1013.21 4347.07,-50.8z"/>
   <path class="fil1" d="M254.61 6732.94l572.44 235.93 0 -471.83 -572.44 235.9zm1129.69 1327.16c0,-109.12 -110.46,-199.91 -256.1,-218.67l0 -37.62 0 -1430.92 -127.76 52.66 0 1378.26 0 39.94c-137.8,23.07 -240.45,111.2 -240.45,216.35 0,85.62 68,159.9 167.58,197.02l6.48 352.82c-20.6,23.54 -22.99,41.28 -24.76,87.18 12.56,57.6 26.45,83.5 84.48,104.26l-295.26 2008.29 317.51 165.11 151.69 -151.69 193.79 0 -248.33 -2021.71c53.44,-22.45 73.8,-52.34 84.48,-90.21 0.9,-34.21 -4.32,-83.54 -23.19,-101.23l18.4 -344.82c112.45,-33.59 191.44,-112.73 191.44,-205.02zm520.72 -908.07c0,0 2674.34,-1365.23 5293.21,-57.13l0 335.09 1691.17 -697.05 -4317.41 -1779.42 -3270.76 1348.04 0 862.75 603.79 248.85 0 -261.13z"/>
   <path class="fil2" d="M3482.4 7930.69c-158.44,1.89 -308.8,15.81 -443.53,58.79 -111.05,35.38 -198.86,86.08 -284.87,144.55 -107.32,72.9 -195.28,166.91 -257.95,267.83 -70.92,114.19 -112.8,213.57 -89.61,354.07 77.34,502.92 549.6,806.66 1098.52,806.66l2140.68 0c159.03,29.07 221.81,154.47 221.81,304.75l0 149.61c-8.7,159.3 -95.03,280.35 -273.68,288.56l-3136.56 0 0 996.97 3314.7 0c603.2,0 1092.17,-396.45 1092.17,-971.59l0 -723.89c0,-575.14 -488.97,-1041.4 -1092.17,-1041.4l-2031.99 0c-154.32,0 -279.42,-204.71 -279.42,-457.2 0,-63.02 7.82,-123.05 21.9,-177.71z"/>
  </g>
 </g>
</svg>
