<?xml version="1.0" encoding="UTF-8"?>
<!DOCTYPE svg PUBLIC "-//W3C//DTD SVG 1.1//EN" "http://www.w3.org/Graphics/SVG/1.1/DTD/svg11.dtd">
<!-- Creator: CorelDRAW 2020 (64 Bit) -->
<svg xmlns="http://www.w3.org/2000/svg" xml:space="preserve" width="15.24mm" height="3.3866mm" version="1.1" style="shape-rendering:geometricPrecision; text-rendering:geometricPrecision; image-rendering:optimizeQuality; fill-rule:evenodd; clip-rule:evenodd"
viewBox="0 0 1524 338.66"
 xmlns:xlink="http://www.w3.org/1999/xlink"
 xmlns:xodm="http://www.corel.com/coreldraw/odm/2003">
 <defs>
  <style type="text/css">
   <![CDATA[
    .fil1 {fill:#004BAF}
    .fil3 {fill:#00AFF5}
    .fil2 {fill:#1677C8}
    .fil0 {fill:#F3F3F3;fill-rule:nonzero}
   ]]>
  </style>
 </defs>
 <g id="Camada_x0020_1">
  <metadata id="CorelCorpID_0Corel-Layer"/>
  <path class="fil0" d="M660.59 297.16l-142.16 0 0 -80.6 54.23 0 0 31.51 33.7 0 0 -41.16 -86.1 -64.91 0 -103.51 138.86 0 0 76.95 -49.22 0 0 -27.48 -35.41 0 0 33.76 86.1 64.73 0 110.71zm142.88 -49.09l0 49.09 -90.14 0 0 -49.09 17.96 0 0 -160.48 -17.96 0 0 -49.1 90.14 0 0 49.1 -17.96 0 0 160.48 17.96 0zm158.57 -61.13l0 -148.45 51.29 0 0 258.67 -53.67 0 -52.94 -148.45 0 148.45 -50.93 0 0 -258.67 53.67 0 52.58 148.45zm207.3 61.13l0 -39.57 -22.35 0 0 -46.17 75.84 0 0 134.83 -154.61 0 0 -258.67 145.45 0 0 49.1 -91.23 0 0 160.48 46.9 0zm107.52 -209.58l125.43 0 0 49.1 -71.94 0 0 49.83 68.34 0 0 48.36 -67.6 0 0 62.29 72.97 0 0 49.09 -127.2 0 0 -258.67z"/>
  <g id="Logo">
   <path class="fil1" d="M369.26 114.58l0 29.86 -147.9 0c-34.61,-1.28 -48.65,23.66 -48.65,23.66l0 -51.23c0,0 90.73,-45.81 196.55,-2.29z"/>
   <path class="fil2" d="M75.42 95l25.88 10.67 0 -21.33 -25.88 10.66zm51.08 60.01c0,-4.93 -5,-9.04 -11.58,-9.89l0 -1.7 0 -64.69 -5.78 2.38 0 62.31 0 1.81c-6.23,1.04 -10.87,5.03 -10.87,9.78 0,3.87 3.07,7.23 7.58,8.91l0.29 15.95c-0.93,1.06 -1.04,1.87 -1.12,3.94 0.57,2.61 1.2,3.78 3.82,4.72l-13.35 90.8 14.36 7.46 6.85 -6.86 8.77 0 -11.23 -91.4c2.41,-1.02 3.33,-2.37 3.82,-4.08 0.04,-1.55 -0.2,-3.78 -1.05,-4.58l0.83 -15.59c5.09,-1.52 8.66,-5.1 8.66,-9.27zm23.54 -41.06c0,0 120.92,-61.72 239.33,-2.58l0 15.15 76.46 -31.52 -195.21 -80.45 -147.88 60.95 0 39.01 27.3 11.25 0 -11.81z"/>
   <path class="fil3" d="M221.36 149.16c-7.16,0.08 -13.96,0.71 -20.05,2.66 -5.03,1.6 -9,3.89 -12.88,6.53 -4.86,3.3 -8.83,7.55 -11.67,12.11 -3.2,5.17 -5.1,9.66 -4.05,16.01 3.5,22.74 24.85,36.47 49.67,36.47l96.79 0c7.19,1.32 10.03,6.99 10.03,13.78l0 6.77c-0.4,7.2 -4.3,12.67 -12.38,13.04l-141.81 0 0 45.08 149.87 0c27.27,0 49.38,-17.92 49.38,-43.93l0 -32.73c0,-26 -22.11,-47.08 -49.38,-47.08l-91.88 0c-6.97,0 -12.63,-9.26 -12.63,-20.68 0,-2.85 0.35,-5.56 0.99,-8.03z"/>
  </g>
 </g>
</svg>
