<?xml version="1.0" encoding="UTF-8"?>
<!DOCTYPE svg PUBLIC "-//W3C//DTD SVG 1.1//EN" "http://www.w3.org/Graphics/SVG/1.1/DTD/svg11.dtd">
<!-- Creator: CorelDRAW 2020 (64 Bit) -->
<svg xmlns="http://www.w3.org/2000/svg" xml:space="preserve" width="91.44mm" height="162.56mm" version="1.1" style="shape-rendering:geometricPrecision; text-rendering:geometricPrecision; image-rendering:optimizeQuality; fill-rule:evenodd; clip-rule:evenodd"
viewBox="0 0 9144 16256"
 xmlns:xlink="http://www.w3.org/1999/xlink"
 xmlns:xodm="http://www.corel.com/coreldraw/odm/2003">
 <defs>
  <style type="text/css">
   <![CDATA[
    .fil0 {fill:#374151}
    .fil1 {fill:#F3F3F3}
    .fil2 {fill:#F3F3F3;fill-rule:nonzero}
   ]]>
  </style>
 </defs>
 <g id="Camada_x0020_1">
  <metadata id="CorelCorpID_0Corel-Layer"/>
  <rect class="fil0" x="492.48" y="1481.67" width="8229.6" height="13983.78" rx="635" ry="606.94"/>
  <g id="Logo">
   <path class="fil1" d="M5969.65 5332.36l0 412.43 -2042.86 0c-478.08,-17.59 -671.96,326.92 -671.96,326.92l0 -707.62c0,0 1253.15,-632.78 2714.82,-31.73z"/>
   <path class="fil1" d="M1910.99 5062.01l357.5 147.34 0 -294.66 -357.5 147.32zm705.51 828.84c0,-68.15 -68.98,-124.85 -159.94,-136.57l0 -23.5 0 -893.62 -79.79 32.88 0 860.74 0 24.95c-86.06,14.41 -150.16,69.45 -150.16,135.12 0,53.47 42.46,99.85 104.66,123.04l4.04 220.34c-12.86,14.7 -14.36,25.78 -15.46,54.45 7.84,35.97 16.51,52.14 52.76,65.11l-184.4 1254.21 198.29 103.11 94.73 -94.73 121.03 0 -155.09 -1262.59c33.38,-14.02 46.1,-32.69 52.76,-56.34 0.57,-21.37 -2.69,-52.17 -14.48,-63.22l11.49 -215.35c70.23,-20.97 119.56,-70.4 119.56,-128.03zm325.2 -567.11c0,0 1670.18,-852.61 3305.71,-35.68l0 209.27 1056.16 -435.32 -2696.3 -1111.28 -2042.65 841.88 0 538.8 377.08 155.41 0 -163.08z"/>
   <path class="fil1" d="M3926.8 5810.03c-98.95,1.18 -192.85,9.87 -276.99,36.71 -69.35,22.1 -124.19,53.76 -177.91,90.28 -67.02,45.53 -121.95,104.23 -161.09,167.26 -44.29,71.32 -70.45,133.38 -55.97,221.13 48.3,314.08 343.24,503.77 686.05,503.77l1336.9 0c99.31,18.15 138.52,96.47 138.52,190.32l0 93.44c-5.44,99.48 -59.35,175.08 -170.92,180.2l-1958.84 0 0 622.63 2070.09 0c376.71,0 682.08,-247.59 682.08,-606.78l0 -452.08c0,-359.18 -305.37,-650.37 -682.08,-650.37l-1269.01 0c-96.38,0 -174.5,-127.84 -174.5,-285.53 0,-39.35 4.88,-76.84 13.67,-110.98z"/>
  </g>
  <path class="fil2" d="M2904.8 10518.09l-804.98 0 0 -456.44 307.07 0 0 178.44 190.86 0 0 -233.06 -487.56 -367.57 0 -586.1 786.32 0 0 435.69 -278.71 0 0 -155.6 -200.55 0 0 191.2 487.55 366.54 0 626.9zm809.06 -278l0 278 -510.38 0 0 -278 101.67 0 0 -908.73 -101.67 0 0 -278 510.38 0 0 278 -101.67 0 0 908.73 101.67 0zm897.92 -346.13l0 -840.6 290.45 0 0 1464.73 -303.93 0 -299.79 -840.6 0 840.6 -288.39 0 0 -1464.73 303.95 0 297.71 840.6zm1173.84 346.13l0 -224.07 -126.54 0 0 -261.42 429.46 0 0 763.49 -875.52 0 0 -1464.73 823.65 0 0 278 -516.61 0 0 908.73 265.56 0zm608.86 -1186.73l710.24 0 0 278 -407.34 0 0 282.17 386.93 0 0 273.86 -382.79 0 0 352.7 413.22 0 0 278 -720.26 0 0 -1464.73z"/>
  <path class="fil2" d="M1413.08 12070.32l0 -71.55 297.05 0 33.76 -33.77 0 -64.81 -34.42 -34.43 -226.84 0 -76.97 -76.94 0 -114.78 76.28 -76.29 319.32 0 0 71.56 -280.82 0 -33.77 33.76 0 56.71 34.43 34.43 226.84 0 76.97 76.96 0 122.87 -76.31 76.28 -335.52 0zm492.15 0l0 -337.55 76.28 0 0 337.55 -76.28 0zm-2.72 -401.01l0 -71.56 81.7 0 0 71.56 -81.7 0zm170.14 401.01l0 -66.16 220.07 0 18.23 -18.23 0 -33.74 -18.23 -18.92 -164.72 0 -59.42 -58.71 0 -83.05 59.42 -58.74 241.69 0 0 65.48 -205.91 0 -18.92 18.92 0 31.73 18.92 18.89 164.72 0 58.74 58.74 0 84.39 -58.74 59.4 -255.85 0zm473.91 0l-49.96 -49.96 0 -222.11 -67.51 0 0 -65.48 67.51 0 0 -89.78 76.28 0 0 89.78 119.51 0 0 65.48 -119.51 0 0 194.44 10.15 10.12 113.4 0 0 67.51 -149.87 0zm286.93 0l-78.32 -78.31 0 -180.92 78.32 -78.32 188.34 0 78.32 78.32 0 124.21 -268.7 0 0 29.04 38.5 38.47 205.89 0 0 67.51 -242.35 0zm-2.04 -197.8l192.41 0 0 -35.77 -38.47 -38.5 -115.44 0 -38.5 38.5 0 35.77zm353.09 197.8l0 -337.55 60.08 0 0 27.01 12.82 0 31.73 -27.01 124.9 0 39.14 39.16 14.87 0 46.58 -39.16 124.88 0 72.24 72.24 0 265.31 -76.29 0 0 -237.64 -32.39 -32.4 -74.27 0 -42.54 34.43 0 235.61 -76.29 0 0 -237.64 -32.39 -32.4 -74.27 0 -42.52 34.43 0 235.61 -76.28 0zm663.61 0l-59.4 -59.4 0 -89.12 64.12 -64.13 193.08 0 0 -29.03 -28.36 -28.36 -184.29 0 0 -67.51 220.76 0 68.19 68.2 0 269.35 -60.08 0 0 -31.73 -11.5 0 -39.15 31.73 -163.37 0zm35.77 -66.16l114.09 0 47.94 -38.47 0 -45.92 -155.95 0 -24.97 24.99 0 41.17 18.89 18.23zm551.55 66.16l0 -66.16 94.51 0 0 -340.93 -94.51 0 0 -65.48 270.04 0 0 65.48 -94.52 0 0 340.93 94.52 0 0 66.16 -270.04 0zm357.15 0l0 -337.55 60.09 0 0 27.01 12.81 0 31.74 -27.01 155.94 0 72.24 72.24 0 265.31 -76.28 0 0 -237.64 -32.42 -32.4 -105.32 0 -42.52 35.12 0 234.92 -76.28 0zm505.65 0l-49.96 -49.96 0 -222.11 -67.51 0 0 -65.48 67.51 0 0 -89.78 76.28 0 0 89.78 119.51 0 0 65.48 -119.51 0 0 194.44 10.15 10.12 113.4 0 0 67.51 -149.87 0zm286.93 0l-78.32 -78.31 0 -180.92 78.32 -78.32 188.34 0 78.31 78.32 0 124.21 -268.69 0 0 29.04 38.5 38.47 205.89 0 0 67.51 -242.35 0zm-2.04 -197.8l192.41 0 0 -35.77 -38.47 -38.5 -115.44 0 -38.5 38.5 0 35.77zm371.98 332.82l0 -67.51 216.03 0 20.24 -20.26 0 -70.21 -10.12 0 -27.66 22.96 -145.83 0 -78.32 -78.31 0 -180.92 78.32 -78.32 259.92 0 0 411.8 -60.77 60.77 -251.81 0zm89.12 -202.53l97.21 0 49.94 -41.19 0 -161.34 -147.15 0 -38.49 38.48 0 125.58 38.49 38.47zm320.67 67.51l0 -337.55 60.08 0 0 27.01 12.82 0 31.73 -27.01 130.98 0 0 67.51 -116.81 0 -42.52 35.12 0 234.92 -76.28 0zm310.52 0l-59.4 -59.4 0 -89.12 64.13 -64.13 193.07 0 0 -29.03 -28.35 -28.36 -184.3 0 0 -67.51 220.76 0 68.2 68.2 0 269.35 -60.09 0 0 -31.73 -11.49 0 -39.16 31.73 -163.37 0zm35.78 -66.16l114.09 0 47.93 -38.47 0 -45.92 -155.95 0 -24.97 24.99 0 41.17 18.9 18.23zm403.71 66.16l-78.32 -78.31 0 -180.92 78.32 -78.32 183.61 0 0 -135.02 76.31 0 0 472.57 -60.09 0 0 -32.39 -13.5 0 -39.16 32.39 -147.17 0zm36.46 -67.51l96.52 0 50.63 -41.19 0 -161.34 -147.15 0 -38.5 38.48 0 125.58 38.5 38.47zm395.6 67.51l-78.31 -78.31 0 -180.92 78.31 -78.32 193.76 0 78.32 78.32 0 180.92 -78.32 78.31 -193.76 0zm36.46 -67.51l120.84 0 38.47 -38.47 0 -125.58 -38.47 -38.48 -120.84 0 -38.49 38.48 0 125.58 38.49 38.47zm-6815.11 1012.63l-78.32 -78.32 0 -180.92 78.32 -78.31 183.61 0 0 -135.02 76.3 0 0 472.57 -60.08 0 0 -32.4 -13.5 0 -39.16 32.4 -147.17 0zm36.46 -67.51l96.52 0 50.63 -41.2 0 -161.33 -147.15 0 -38.5 38.47 0 125.58 38.5 38.48zm395.6 67.51l-78.32 -78.32 0 -180.92 78.32 -78.31 188.34 0 78.32 78.31 0 124.22 -268.69 0 0 29.03 38.49 38.48 205.89 0 0 67.51 -242.35 0zm-2.03 -197.8l192.4 0 0 -35.78 -38.47 -38.5 -115.44 0 -38.49 38.5 0 35.78zm681.83 197.8l-95.86 -95.87 0 -280.84 95.86 -95.86 328.12 0 0 71.55 -289.62 0 -53.35 53.35 0 222.77 53.35 53.34 194.42 0 53.34 -53.34 0 -82.36 -169.44 0 0 -67.51 250.46 0 0 178.9 -95.87 95.87 -271.41 0zm528.61 0l-78.31 -78.32 0 -180.92 78.31 -78.31 188.35 0 78.31 78.31 0 124.22 -268.69 0 0 29.03 38.5 38.48 205.88 0 0 67.51 -242.35 0zm-2.03 -197.8l192.41 0 0 -35.78 -38.47 -38.5 -115.44 0 -38.5 38.5 0 35.78zm340.27 197.8l0 -66.17 220.07 0 18.24 -18.23 0 -33.74 -18.24 -18.92 -164.71 0 -59.43 -58.71 0 -83.05 59.43 -58.73 241.68 0 0 65.47 -205.91 0 -18.92 18.92 0 31.73 18.92 18.9 164.72 0 58.74 58.73 0 84.4 -58.74 59.4 -255.85 0zm473.92 0l-49.97 -49.97 0 -222.11 -67.51 0 0 -65.47 67.51 0 0 -89.79 76.28 0 0 89.79 119.51 0 0 65.47 -119.51 0 0 194.45 10.15 10.12 113.41 0 0 67.51 -149.87 0zm257.88 0l-59.4 -59.4 0 -89.13 64.13 -64.12 193.07 0 0 -29.04 -28.35 -28.35 -184.3 0 0 -67.51 220.76 0 68.2 68.19 0 269.36 -60.09 0 0 -31.74 -11.49 0 -39.16 31.74 -163.37 0zm35.78 -66.17l114.09 0 47.93 -38.47 0 -45.92 -155.94 0 -24.97 25 0 41.16 18.89 18.23zm-37.79 -315.27l0 -64.13 37.13 -37.12 77.63 0 43.88 51.97 24.98 0 8.77 -8.77 0 -43.2 56.73 0 0 64.13 -37.15 37.12 -77.63 0 -43.89 -51.97 -24.97 0 -8.77 8.77 0 43.2 -56.71 0zm441.5 381.44l-78.32 -78.32 0 -180.92 78.32 -78.31 193.76 0 78.31 78.31 0 180.92 -78.31 78.32 -193.76 0zm36.46 -67.51l120.83 0 38.48 -38.48 0 -125.58 -38.48 -38.47 -120.83 0 -38.49 38.47 0 125.58 38.49 38.48zm572.48 67.51l0 -472.57 399.67 0 0 71.55 -318.66 0 0 128.28 244.38 0 0 69.52 -244.38 0 0 131.66 325.39 0 0 71.56 -406.4 0zm540.08 0l-78.32 -78.32 0 -180.92 78.32 -78.31 183.61 0 0 -135.02 76.31 0 0 472.57 -60.09 0 0 -32.4 -13.5 0 -39.16 32.4 -147.17 0zm36.46 -67.51l96.52 0 50.63 -41.2 0 -161.33 -147.15 0 -38.5 38.47 0 125.58 38.5 38.48zm392.9 67.51l-72.23 -72.24 0 -265.31 76.28 0 0 237.64 32.39 32.4 95.2 0 42.54 -35.12 0 -234.92 76.28 0 0 337.55 -60.08 0 0 -27.01 -12.15 0 -32.42 27.01 -145.81 0zm419.23 0l-78.32 -78.32 0 -180.92 78.32 -78.31 220.76 0 0 67.51 -184.3 0 -38.5 38.47 0 125.58 38.5 38.48 184.3 0 0 67.51 -220.76 0zm331.47 0l-59.4 -59.4 0 -89.13 64.13 -64.12 193.07 0 0 -29.04 -28.35 -28.35 -184.3 0 0 -67.51 220.76 0 68.2 68.19 0 269.36 -60.09 0 0 -31.74 -11.49 0 -39.16 31.74 -163.37 0zm35.78 -66.17l114.09 0 47.93 -38.47 0 -45.92 -155.95 0 -24.97 25 0 41.16 18.9 18.23zm403.71 66.17l-78.32 -78.32 0 -180.92 78.32 -78.31 220.76 0 0 67.51 -184.3 0 -38.5 38.47 0 125.58 38.5 38.48 184.3 0 0 67.51 -220.76 0zm302.46 0l0 -337.55 76.28 0 0 337.55 -76.28 0zm-2.72 -401.02l0 -71.55 81.7 0 0 71.55 -81.7 0zm247.76 401.02l-78.31 -78.32 0 -180.92 78.31 -78.31 193.76 0 78.32 78.31 0 180.92 -78.32 78.32 -193.76 0zm36.46 -67.51l120.84 0 38.47 -38.48 0 -125.58 -38.47 -38.47 -120.84 0 -38.49 38.47 0 125.58 38.49 38.48zm326.09 67.51l0 -337.55 60.08 0 0 27 12.82 0 31.73 -27 155.95 0 72.24 72.24 0 265.31 -76.29 0 0 -237.65 -32.42 -32.39 -105.32 0 -42.51 35.11 0 234.93 -76.28 0zm469.18 0l-59.39 -59.4 0 -89.13 64.12 -64.12 193.07 0 0 -29.04 -28.35 -28.35 -184.3 0 0 -67.51 220.77 0 68.19 68.19 0 269.36 -60.08 0 0 -31.74 -11.5 0 -39.15 31.74 -163.38 0zm35.78 -66.17l114.09 0 47.93 -38.47 0 -45.92 -155.94 0 -24.97 25 0 41.16 18.89 18.23zm346.32 66.17l0 -407.1 -67.51 0 0 -65.47 143.8 0 0 472.57 -76.29 0z"/>
 </g>
</svg>
