<?xml version="1.0" encoding="UTF-8"?>
<!DOCTYPE svg PUBLIC "-//W3C//DTD SVG 1.1//EN" "http://www.w3.org/Graphics/SVG/1.1/DTD/svg11.dtd">
<!-- Creator: CorelDRAW 2020 (64 Bit) -->
<svg xmlns="http://www.w3.org/2000/svg" xml:space="preserve" width="91.44mm" height="162.56mm" version="1.1" style="shape-rendering:geometricPrecision; text-rendering:geometricPrecision; image-rendering:optimizeQuality; fill-rule:evenodd; clip-rule:evenodd"
viewBox="0 0 9144 16256"
 xmlns:xlink="http://www.w3.org/1999/xlink"
 xmlns:xodm="http://www.corel.com/coreldraw/odm/2003">
 <defs>
  <style type="text/css">
   <![CDATA[
    .fil0 {fill:#004BAF}
    .fil2 {fill:#00AFF5}
    .fil1 {fill:#1677C8}
    .fil3 {fill:#374151;fill-rule:nonzero}
   ]]>
  </style>
 </defs>
 <g id="Camada_x0020_1">
  <metadata id="CorelCorpID_0Corel-Layer"/>
  <g id="_2463888493456">
   <g id="Logo">
    <path class="fil0" d="M6006.08 7507.84l0 434.14 -2150.38 0c-503.24,-18.52 -707.33,344.12 -707.33,344.12l0 -744.86c0,0 1319.11,-666.08 2857.71,-33.4z"/>
    <path class="fil1" d="M1733.81 7223.26l376.31 155.1 0 -310.17 -376.31 155.07zm742.64 872.46c0,-71.73 -72.61,-131.42 -168.36,-143.75l0 -24.73 0 -940.67 -83.99 34.62 0 906.05 0 26.25c-90.59,15.17 -158.06,73.11 -158.06,142.23 0,56.29 44.7,105.12 110.16,129.52l4.26 231.94c-13.54,15.47 -15.12,27.13 -16.28,57.31 8.26,37.87 17.39,54.89 55.54,68.54l-194.1 1320.22 208.72 108.55 99.72 -99.73 127.4 0 -163.25 -1329.04c35.13,-14.76 48.52,-34.41 55.53,-59.3 0.6,-22.5 -2.83,-54.92 -15.24,-66.55l12.1 -226.68c73.92,-22.08 125.85,-74.11 125.85,-134.78zm342.31 -596.95c0,0 1758.08,-897.48 3479.69,-37.56l0 220.29 1111.76 -458.24 -2838.22 -1169.77 -2150.15 886.19 0 567.16 396.92 163.59 0 -171.66z"/>
    <path class="fil2" d="M3855.71 8010.65c-104.16,1.24 -203,10.4 -291.57,38.65 -73,23.26 -130.72,56.59 -187.27,95.03 -70.55,47.92 -128.37,109.72 -169.57,176.06 -46.62,75.07 -74.16,140.4 -58.91,232.76 50.84,330.62 361.3,530.29 722.16,530.29l1407.25 0c104.55,19.11 145.81,101.55 145.81,200.34l0 98.35c-5.72,104.72 -62.47,184.3 -179.91,189.7l-2061.93 0 0 655.39 2179.04 0c396.53,0 717.97,-260.62 717.97,-638.71l0 -475.87c0,-378.1 -321.44,-684.61 -717.97,-684.61l-1335.8 0c-101.45,0 -183.69,-134.57 -183.69,-300.56 0,-41.42 5.14,-80.89 14.39,-116.82z"/>
   </g>
   <path class="fil3" d="M2779.92 5651.05l-847.34 0 0 -480.47 323.22 0 0 187.84 200.91 0 0 -245.33 -513.22 -386.91 0 -616.95 827.71 0 0 458.62 -293.39 0 0 -163.79 -211.1 0 0 201.27 513.21 385.83 0 659.89zm851.64 -292.63l0 292.63 -537.24 0 0 -292.63 107.02 0 0 -956.55 -107.02 0 0 -292.64 537.24 0 0 292.64 -107.02 0 0 956.55 107.02 0zm945.18 -364.35l0 -884.84 305.74 0 0 1541.82 -319.93 0 -315.56 -884.84 0 884.84 -303.57 0 0 -1541.82 319.95 0 313.37 884.84zm1235.62 364.35l0 -235.86 -133.2 0 0 -275.18 452.07 0 0 803.67 -921.6 0 0 -1541.82 866.99 0 0 292.64 -543.79 0 0 956.55 279.53 0zm640.91 -1249.19l747.62 0 0 292.64 -428.78 0 0 297.02 407.29 0 0 288.27 -402.93 0 0 371.26 434.97 0 0 292.63 -758.17 0 0 -1541.82z"/>
   <path class="fil3" d="M1209.69 11151.9l0 -75.32 312.68 0 35.55 -35.54 0 -68.23 -36.25 -36.24 -238.77 0 -81.02 -80.99 0 -120.82 80.3 -80.3 336.12 0 0 75.32 -295.6 0 -35.55 35.54 0 59.69 36.24 36.24 238.78 0 81.02 81.02 0 129.33 -80.32 80.3 -353.18 0zm518.05 0l0 -355.32 80.3 0 0 355.32 -80.3 0zm-2.86 -422.12l0 -75.32 86 0 0 75.32 -86 0zm179.09 422.12l0 -69.65 231.66 0 19.19 -19.19 0 -35.51 -19.19 -19.92 -173.39 0 -62.55 -61.8 0 -87.42 62.55 -61.83 254.41 0 0 68.93 -216.75 0 -19.91 19.91 0 33.4 19.91 19.89 173.39 0 61.83 61.83 0 88.83 -61.83 62.53 -269.32 0zm498.86 0l-52.59 -52.6 0 -233.79 -71.07 0 0 -68.93 71.07 0 0 -94.51 80.29 0 0 94.51 125.8 0 0 68.93 -125.8 0 0 204.67 10.68 10.66 119.38 0 0 71.06 -157.76 0zm302.03 0l-82.44 -82.44 0 -190.44 82.44 -82.44 198.25 0 82.44 82.44 0 130.75 -282.84 0 0 30.57 40.53 40.5 216.72 0 0 71.06 -255.1 0zm-2.15 -208.21l202.54 0 0 -37.66 -40.5 -40.52 -121.51 0 -40.53 40.52 0 37.66zm371.67 208.21l0 -355.32 63.25 0 0 28.43 13.49 0 33.4 -28.43 131.48 0 41.19 41.22 15.66 0 49.03 -41.22 131.45 0 76.04 76.05 0 279.27 -80.3 0 0 -250.15 -34.1 -34.1 -78.18 0 -44.78 36.24 0 248.01 -80.29 0 0 -250.15 -34.1 -34.1 -78.19 0 -44.75 36.24 0 248.01 -80.3 0zm698.54 0l-62.53 -62.53 0 -93.81 67.5 -67.5 203.24 0 0 -30.57 -29.85 -29.84 -194 0 0 -71.07 232.38 0 71.79 71.79 0 283.53 -63.25 0 0 -33.4 -12.1 0 -41.21 33.4 -171.97 0zm37.66 -69.65l120.09 0 50.46 -40.49 0 -48.34 -164.16 0 -26.28 26.31 0 43.33 19.89 19.19zm580.57 69.65l0 -69.65 99.49 0 0 -358.87 -99.49 0 0 -68.92 284.25 0 0 68.92 -99.48 0 0 358.87 99.48 0 0 69.65 -284.25 0zm375.95 0l0 -355.32 63.25 0 0 28.43 13.49 0 33.4 -28.43 164.16 0 76.04 76.05 0 279.27 -80.3 0 0 -250.15 -34.12 -34.1 -110.87 0 -44.75 36.96 0 247.29 -80.3 0zm532.27 0l-52.6 -52.6 0 -233.79 -71.06 0 0 -68.93 71.06 0 0 -94.51 80.3 0 0 94.51 125.8 0 0 68.93 -125.8 0 0 204.67 10.68 10.66 119.37 0 0 71.06 -157.75 0zm302.02 0l-82.44 -82.44 0 -190.44 82.44 -82.44 198.25 0 82.44 82.44 0 130.75 -282.83 0 0 30.57 40.52 40.5 216.72 0 0 71.06 -255.1 0zm-2.14 -208.21l202.53 0 0 -37.66 -40.49 -40.52 -121.52 0 -40.52 40.52 0 37.66zm391.55 350.34l0 -71.07 227.41 0 21.3 -21.33 0 -73.9 -10.65 0 -29.12 24.17 -153.5 0 -82.44 -82.44 0 -190.44 82.44 -82.44 273.6 0 0 433.48 -63.97 63.97 -265.07 0zm93.82 -213.19l102.32 0 52.57 -43.36 0 -169.83 -154.89 0 -40.52 40.49 0 132.2 40.52 40.5zm337.54 71.06l0 -355.32 63.25 0 0 28.43 13.49 0 33.4 -28.43 137.87 0 0 71.07 -122.96 0 -44.75 36.96 0 247.29 -80.3 0zm326.87 0l-62.53 -62.53 0 -93.81 67.5 -67.5 203.24 0 0 -30.57 -29.85 -29.84 -194 0 0 -71.07 232.38 0 71.79 71.79 0 283.53 -63.25 0 0 -33.4 -12.1 0 -41.21 33.4 -171.97 0zm37.65 -69.65l120.1 0 50.46 -40.49 0 -48.34 -164.16 0 -26.28 26.31 0 43.33 19.88 19.19zm424.96 69.65l-82.43 -82.44 0 -190.44 82.43 -82.44 193.28 0 0 -142.12 80.32 0 0 497.44 -63.24 0 0 -34.1 -14.22 0 -41.22 34.1 -154.92 0zm38.39 -71.06l101.6 0 53.29 -43.36 0 -169.83 -154.89 0 -40.53 40.49 0 132.2 40.53 40.5zm416.42 71.06l-82.44 -82.44 0 -190.44 82.44 -82.44 203.95 0 82.44 82.44 0 190.44 -82.44 82.44 -203.95 0zm38.38 -71.06l127.19 0 40.5 -40.5 0 -132.2 -40.5 -40.49 -127.19 0 -40.52 40.49 0 132.2 40.52 40.5zm-7173.81 1065.92l-82.44 -82.44 0 -190.44 82.44 -82.44 193.28 0 0 -142.13 80.32 0 0 497.45 -63.25 0 0 -34.1 -14.21 0 -41.22 34.1 -154.92 0zm38.38 -71.07l101.61 0 53.29 -43.36 0 -169.83 -154.9 0 -40.52 40.5 0 132.2 40.52 40.49zm416.43 71.07l-82.44 -82.44 0 -190.44 82.44 -82.44 198.25 0 82.44 82.44 0 130.75 -282.83 0 0 30.57 40.52 40.49 216.72 0 0 71.07 -255.1 0zm-2.14 -208.22l202.53 0 0 -37.65 -40.5 -40.53 -121.51 0 -40.52 40.53 0 37.65zm717.72 208.22l-100.91 -100.91 0 -295.63 100.91 -100.91 345.38 0 0 75.32 -304.86 0 -56.15 56.16 0 234.49 56.15 56.16 204.65 0 56.16 -56.16 0 -86.69 -178.37 0 0 -71.06 263.64 0 0 188.32 -100.9 100.91 -285.7 0zm556.43 0l-82.44 -82.44 0 -190.44 82.44 -82.44 198.26 0 82.43 82.44 0 130.75 -282.83 0 0 30.57 40.52 40.49 216.73 0 0 71.07 -255.11 0zm-2.14 -208.22l202.54 0 0 -37.65 -40.5 -40.53 -121.52 0 -40.52 40.53 0 37.65zm358.18 208.22l0 -69.65 231.66 0 19.19 -19.19 0 -35.52 -19.19 -19.91 -173.39 0 -62.55 -61.8 0 -87.42 62.55 -61.83 254.41 0 0 68.92 -216.75 0 -19.92 19.92 0 33.4 19.92 19.89 173.39 0 61.83 61.83 0 88.83 -61.83 62.53 -269.32 0zm498.86 0l-52.6 -52.6 0 -233.8 -71.06 0 0 -68.92 71.06 0 0 -94.51 80.3 0 0 94.51 125.8 0 0 68.92 -125.8 0 0 204.68 10.68 10.65 119.38 0 0 71.07 -157.76 0zm271.46 0l-62.53 -62.53 0 -93.81 67.51 -67.51 203.23 0 0 -30.56 -29.85 -29.85 -193.99 0 0 -71.06 232.38 0 71.78 71.79 0 283.53 -63.25 0 0 -33.41 -12.09 0 -41.22 33.41 -171.97 0zm37.66 -69.65l120.09 0 50.46 -40.5 0 -48.33 -164.16 0 -26.28 26.31 0 43.33 19.89 19.19zm-39.78 -331.87l0 -67.5 39.08 -39.08 81.72 0 46.19 54.71 26.29 0 9.23 -9.23 0 -45.48 59.72 0 0 67.5 -39.11 39.08 -81.71 0 -46.2 -54.71 -26.29 0 -9.23 9.24 0 45.47 -59.69 0zm464.74 401.52l-82.44 -82.44 0 -190.44 82.44 -82.44 203.95 0 82.44 82.44 0 190.44 -82.44 82.44 -203.95 0zm38.38 -71.07l127.19 0 40.5 -40.49 0 -132.2 -40.5 -40.5 -127.19 0 -40.52 40.5 0 132.2 40.52 40.49zm602.6 71.07l0 -497.45 420.71 0 0 75.32 -335.43 0 0 135.04 257.24 0 0 73.17 -257.24 0 0 138.6 342.52 0 0 75.32 -427.8 0zm568.51 0l-82.44 -82.44 0 -190.44 82.44 -82.44 193.27 0 0 -142.13 80.33 0 0 497.45 -63.25 0 0 -34.1 -14.21 0 -41.22 34.1 -154.92 0zm38.38 -71.07l101.6 0 53.29 -43.36 0 -169.83 -154.89 0 -40.52 40.5 0 132.2 40.52 40.49zm413.58 71.07l-76.04 -76.05 0 -279.27 80.3 0 0 250.15 34.1 34.1 100.21 0 44.78 -36.96 0 -247.29 80.3 0 0 355.32 -63.25 0 0 -28.43 -12.8 0 -34.12 28.43 -153.48 0zm441.29 0l-82.44 -82.44 0 -190.44 82.44 -82.44 232.38 0 0 71.06 -194 0 -40.52 40.5 0 132.2 40.52 40.49 194 0 0 71.07 -232.38 0zm348.92 0l-62.53 -62.53 0 -93.81 67.51 -67.51 203.23 0 0 -30.56 -29.85 -29.85 -193.99 0 0 -71.06 232.38 0 71.78 71.79 0 283.53 -63.25 0 0 -33.41 -12.09 0 -41.22 33.41 -171.97 0zm37.66 -69.65l120.1 0 50.45 -40.5 0 -48.33 -164.16 0 -26.28 26.31 0 43.33 19.89 19.19zm424.96 69.65l-82.44 -82.44 0 -190.44 82.44 -82.44 232.38 0 0 71.06 -194 0 -40.52 40.5 0 132.2 40.52 40.49 194 0 0 71.07 -232.38 0zm318.37 0l0 -355.32 80.3 0 0 355.32 -80.3 0zm-2.86 -422.13l0 -75.32 86 0 0 75.32 -86 0zm260.81 422.13l-82.44 -82.44 0 -190.44 82.44 -82.44 203.95 0 82.44 82.44 0 190.44 -82.44 82.44 -203.95 0zm38.38 -71.07l127.19 0 40.5 -40.49 0 -132.2 -40.5 -40.5 -127.19 0 -40.52 40.5 0 132.2 40.52 40.49zm343.24 71.07l0 -355.32 63.25 0 0 28.43 13.49 0 33.4 -28.43 164.16 0 76.04 76.04 0 279.28 -80.3 0 0 -250.16 -34.12 -34.1 -110.87 0 -44.75 36.97 0 247.29 -80.3 0zm493.88 0l-62.52 -62.53 0 -93.81 67.5 -67.51 203.23 0 0 -30.56 -29.84 -29.85 -194 0 0 -71.06 232.38 0 71.79 71.79 0 283.53 -63.25 0 0 -33.41 -12.1 0 -41.22 33.41 -171.97 0zm37.66 -69.65l120.1 0 50.45 -40.5 0 -48.33 -164.15 0 -26.28 26.31 0 43.33 19.88 19.19zm364.55 69.65l0 -428.52 -71.06 0 0 -68.93 151.36 0 0 497.45 -80.3 0z"/>
  </g>
 </g>
</svg>
